<svg xmlns="http://www.w3.org/2000/svg" width="542" height="534" viewBox="0 0 542 534">
    <g id="easylokal_logo" transform="translate(0 534)">
        <path id="Path_1" data-name="Path 1"
              d="M0-267V0H542V-534H0ZM224.3-404.5c43.2,9,82.7,27.2,109.3,50.4,33.6,29.3,49.7,69.8,46.3,116.2-3.2,42.1-23.6,77.1-60.4,103.4-24.1,17.2-58.9,31.7-94.2,39.1-6.7,1.4-13.1,2.4-14.2,2.2-1.5-.2.5-2.6,9.5-10.7,6.3-5.7,11.4-10.7,11.4-11.1,0-.5-18-30.9-40-67.6-23.1-38.4-39.9-67.3-39.5-68.2.3-.7,18.3-31,40-67.2S232-384.2,232-384.7s-5.2-5.5-11.5-11.3c-6.3-5.7-11.5-10.5-11.5-10.7C209-407.4,213.2-406.8,224.3-404.5Z"
              fill="#3d55e1"/>
        <path id="Path_2" data-name="Path 2"
              d="M238-249.4v129.8l4.8-4.5c2.6-2.6,34.3-31.7,70.5-64.8,36.1-33.1,65.7-60.6,65.7-61,0-.8-138.7-128.3-140.2-128.9C238.4-379,238-320.8,238-249.4Z"
              fill="#3d55e1"/>
    </g>
</svg>
